<svg width="512" height="512" viewBox="0 0 512 512" fill="none" xmlns="http://www.w3.org/2000/svg">
  <!-- Background circle -->
  <rect width="512" height="512" rx="100" fill="#1E3A5F"/>
  
  <!-- Stream arrows -->
  <g transform="translate(150, 100)">
    <!-- Navy arrow -->
    <path d="M110 280C110 280 50 230 50 180C50 130 80 80 80 80L120 120C120 120 100 150 100 180C100 210 130 240 130 240L110 280Z" fill="#1E3A5F"/>
    <path d="M110 280L80 260L110 240L140 260L110 280Z" fill="#1E3A5F"/>
    <polygon points="110,40 80,80 110,70 140,80" fill="#1E3A5F"/>
    
    <!-- Teal arrow -->
    <path d="M100 270C100 270 160 220 160 170C160 120 130 70 130 70L170 110C170 110 150 140 150 170C150 200 120 230 120 230L100 270Z" fill="#00B8A9"/>
    <path d="M100 270L130 250L100 230L70 250L100 270Z" fill="#00B8A9"/>
    <polygon points="160,30 130,70 160,60 190,70" fill="#00B8A9"/>
  </g>
</svg>

